<svg xmlns="http://www.w3.org/2000/svg" width="130.676" height="130.676" viewBox="0 0 130.676 130.676">
  <g id="bladder" transform="translate(0)" opacity="0.8">
    <path id="Path_4650" data-name="Path 4650" d="M196.983,131.758a2.638,2.638,0,0,1,2.569-3.234h2.322a23.3,23.3,0,0,1,2.9-7.657h-5.226a10.294,10.294,0,0,0-10.028,12.621l9.246,39.851.015.062c1.271,5.094-1.238,10.23-6,13.027l.747-5.313a1.313,1.313,0,0,0,.013-.176A4.343,4.343,0,0,0,189.2,176.6H173.032a4.344,4.344,0,0,0-4.339,4.339,1.339,1.339,0,0,0,.013.177l.747,5.312c-4.763-2.8-7.273-7.933-6-13.027.017-.066.031-.132.044-.2l7.774-40.08a10.294,10.294,0,0,0-10.106-12.255h-3.7a23.326,23.326,0,0,1,2.9,7.657h.8a2.638,2.638,0,0,1,2.59,3.14L156,171.651c-2.466,10.111,3.707,20.2,14.394,23.5.1.031.2.058.3.087l.553,3.934.006.12a4.33,4.33,0,0,0,4.334,4.135h11.066a4.331,4.331,0,0,0,4.335-4.135l0-.12.553-3.934c.1-.029.2-.056.3-.087,10.714-3.3,16.889-13.433,14.377-23.569Zm0,0" transform="translate(-115.78 -90.019)" fill="#fff"/>
    <path id="Path_4651" data-name="Path 4651" d="M37.356,13.263C37.356,5.95,32.372,0,26.245,0H23.386c-6.357,0-12.3,3.053-16.725,8.595A32.076,32.076,0,0,0,0,28.622,32.077,32.077,0,0,0,6.661,48.651c4.429,5.543,10.369,8.595,16.725,8.595.09,0,.18,0,.27-.014.348-.038,1.457-.143,1.975-.143,6.465,0,11.725-6.295,11.725-14.031a15.374,15.374,0,0,0-3.862-10.43l-.426-.457.1-.615a20.425,20.425,0,0,0-.1-7l-.126-.662.475-.477a14.4,14.4,0,0,0,3.939-10.149Zm0,0" transform="translate(0 0)" fill="#fff"/>
    <path id="Path_4652" data-name="Path 4652" d="M241,480.117a3.828,3.828,0,1,0,7.657,0v-5.785H241Zm0,0" transform="translate(-179.491 -353.27)" fill="#fff"/>
    <path id="Path_4653" data-name="Path 4653" d="M396.328,8.595C391.9,3.053,385.96,0,379.6,0h-2.859c-6.126,0-11.111,5.95-11.111,13.263a14.4,14.4,0,0,0,3.939,10.149l.475.478-.126.661a20.423,20.423,0,0,0-.1,7l.1.616-.426.456a15.376,15.376,0,0,0-3.862,10.43c0,7.737,5.26,14.031,11.725,14.031.516,0,1.626.106,1.976.143a2.69,2.69,0,0,0,.269.014c6.357,0,12.3-3.052,16.725-8.595a32.077,32.077,0,0,0,6.661-20.028,32.076,32.076,0,0,0-6.661-20.027Zm0,0" transform="translate(-272.314 0)" fill="#fff"/>
  </g>
</svg>
