<svg xmlns="http://www.w3.org/2000/svg" width="118.567" height="159.808" viewBox="0 0 118.567 159.808">
  <path id="blood" d="M9,160.808H127.567V111.834a59.374,59.374,0,0,0-45.592-57.67,28.353,28.353,0,1,0-27.384,0A59.374,59.374,0,0,0,9,111.834ZM45.086,29.353a23.2,23.2,0,1,1,23.2,23.2A23.225,23.225,0,0,1,45.086,29.353ZM14.155,111.834a54.128,54.128,0,1,1,108.257,0v43.818H112.1V88.636h-5.155v67.016H29.62V88.636H24.465v67.016H14.155Zm77.326-2.578H86.326a7.039,7.039,0,0,0-3.142-5.869l-3.444-2.3L82.6,96.8l3.444,2.3A12.174,12.174,0,0,1,91.481,109.257ZM39.931,143.95l15.331-13.14,6.521,6.521-8.965,6.722V150.5h5.155v-3.866l8.271-6.2,27.139,7.4,8.408.09v-5.155H94.4L85.739,140.4l9.274-7.947h6.779V127.3H93.105L79.733,138.764l-12.687-3.459-9.073-9.073v-14.4h5.155v-5.155H57.973V80.9a12.888,12.888,0,0,1,25.515-2.578H78.594V89.639a12.67,12.67,0,0,0-5.928,18.185l3.642,6.07a11.685,11.685,0,0,0,20.038,0l3.642-6.07a12.67,12.67,0,0,0-5.928-18.185V78.326H88.7A18.031,18.031,0,0,0,52.818,80.9V96.16l-9.405-7.524H34.775v5.155H41.6l11.215,8.972v11.648H49.042l-5.155-7.733H34.775v5.155h6.354l5.155,7.733h6.534v6.547L34.775,141.579V150.5h5.155ZM88.9,88.636H83.749V83.481H88.9Zm7.733,12.669a7.523,7.523,0,0,1-1.07,3.866l-3.642,6.07a6.53,6.53,0,0,1-11.2,0l-3.642-6.07A7.517,7.517,0,0,1,83.53,93.792h5.593A7.523,7.523,0,0,1,96.636,101.305Z" transform="translate(-9 -1)" fill="#fff" opacity="0.8"/>
</svg>
