<svg xmlns="http://www.w3.org/2000/svg" width="135.191" height="149.676" viewBox="0 0 135.191 149.676">
  <g id="respiratory-system_1_" data-name="respiratory-system (1)" transform="translate(-4 -1)" opacity="0.8">
    <path id="Path_4642" data-name="Path 4642" d="M62.484,53.869l5.091-5.091-3.414-3.414L59.07,50.455a16.77,16.77,0,0,0-7.687-3.191V35H46.555V47.264a16.77,16.77,0,0,0-7.687,3.191l-5.091-5.091-3.414,3.414,5.091,5.091a16.77,16.77,0,0,0-3.191,7.687H20v4.828H32.264a16.77,16.77,0,0,0,3.191,7.687l-5.091,5.091,3.414,3.414,5.091-5.091a16.8,16.8,0,0,0,7.687,3.191V92.939h4.828V80.675a16.77,16.77,0,0,0,7.687-3.191l5.091,5.091,3.414-3.414L62.484,74.07a16.8,16.8,0,0,0,3.191-7.687H77.939V61.555H65.675A16.77,16.77,0,0,0,62.484,53.869ZM51.384,75.8V71.212H46.555V75.8a12.108,12.108,0,0,1-9.413-9.413h4.584V61.555H37.143a12.108,12.108,0,0,1,9.413-9.413v4.584h4.828V52.143A12.108,12.108,0,0,1,60.8,61.555H56.212v4.828H60.8A12.108,12.108,0,0,1,51.384,75.8Z" transform="translate(22.626 48.08)" fill="#fff"/>
    <path id="Path_4643" data-name="Path 4643" d="M29,44h4.828v4.828H29Z" transform="translate(35.353 60.807)" fill="#fff"/>
    <path id="Path_4644" data-name="Path 4644" d="M33,48h4.828v4.828H33Z" transform="translate(41.009 66.464)" fill="#fff"/>
    <path id="Path_4645" data-name="Path 4645" d="M35,36h4.828v4.828H35Z" transform="translate(43.838 49.494)" fill="#fff"/>
    <path id="Path_4646" data-name="Path 4646" d="M41,52h4.828v4.828H41Z" transform="translate(52.322 72.12)" fill="#fff"/>
    <path id="Path_4647" data-name="Path 4647" d="M27,55h4.828v4.828H27Z" transform="translate(32.525 76.362)" fill="#fff"/>
    <path id="Path_4648" data-name="Path 4648" d="M21,41h4.828v4.828H21Z" transform="translate(24.04 56.565)" fill="#fff"/>
    <path id="Path_4649" data-name="Path 4649" d="M134.14,73.349a86.964,86.964,0,0,0-23.646-35.275l-5.828-5.243A11.135,11.135,0,0,0,86.08,41.106v.338a19.292,19.292,0,0,1-2.414-9.292V1H78.838V32.152a24.263,24.263,0,0,0,11.718,20.7L93.6,54.68a19.408,19.408,0,0,1,9.376,16.561v7.011h4.828V71.241a24.263,24.263,0,0,0-11.718-20.7l-3.047-1.827a19.281,19.281,0,0,1-2.134-1.494V41.106a6.308,6.308,0,0,1,10.528-4.688l5.828,5.243c.13.118.251.246.381.365a7.608,7.608,0,0,1-7.081,4.843V51.7a12.421,12.421,0,0,0,10.709-6.149,82.241,82.241,0,0,1,12.99,17.662L120.877,66.6a19.759,19.759,0,0,0-5.828,14.069,14.968,14.968,0,0,1-4.413,10.656l-2.122,2.122,3.414,3.414,2.122-2.122a19.741,19.741,0,0,0,5.313-9.628l1.028.77a10.843,10.843,0,0,1,4.314,8.63,15.518,15.518,0,0,0,4.575,11.045l.961.961,3.414-3.416-.961-.958a10.723,10.723,0,0,1-3.16-7.631,15.694,15.694,0,0,0-6.248-12.493L119.933,79.5a14.938,14.938,0,0,1,4.357-9.492l2.274-2.274c1.113,2.366,2.149,4.77,3.03,7.238a81.632,81.632,0,0,1,4.768,27.533V108.1a8.781,8.781,0,0,1-13.531,7.387l-10.789-6.936a38.64,38.64,0,0,0-19.137-29.9V66.06A16.893,16.893,0,0,1,93.32,74.7v3.549h4.828V74.7A21.835,21.835,0,0,0,87.6,56.071l-5.388-3.233a16.985,16.985,0,0,1-8.2-14.49V1H69.181V38.349a16.982,16.982,0,0,1-8.2,14.49L55.59,56.071A21.832,21.832,0,0,0,45.04,74.7v3.551h4.828V74.7a16.893,16.893,0,0,1,2.414-8.643v12.59a38.647,38.647,0,0,0-19.137,29.9L22.357,115.48A8.777,8.777,0,0,1,8.828,108.1V102.5A81.6,81.6,0,0,1,13.6,74.973c.881-2.467,1.917-4.872,3.03-7.238L18.9,70.01A14.95,14.95,0,0,1,23.257,79.5L19.9,82.018a15.686,15.686,0,0,0-6.248,12.491,10.717,10.717,0,0,1-3.16,7.629l-.961.961,3.414,3.416.961-.961a15.518,15.518,0,0,0,4.575-11.045,10.843,10.843,0,0,1,4.314-8.63l1.028-.77a19.731,19.731,0,0,0,5.313,9.627l2.122,2.122,3.414-3.414-2.122-2.122a14.968,14.968,0,0,1-4.413-10.656A19.759,19.759,0,0,0,22.314,66.6l-3.387-3.387a82.175,82.175,0,0,1,12.99-17.664A12.419,12.419,0,0,0,42.626,51.7V46.868a7.609,7.609,0,0,1-7.081-4.843c.13-.118.249-.246.379-.365l5.828-5.243a6.309,6.309,0,0,1,10.53,4.688v6.113a18.96,18.96,0,0,1-2.134,1.494L47.1,50.54a24.26,24.26,0,0,0-11.718,20.7v7.011h4.828V71.241A19.411,19.411,0,0,1,49.588,54.68l3.047-1.827a24.26,24.26,0,0,0,11.718-20.7V1H59.525V32.152a19.292,19.292,0,0,1-2.414,9.292v-.338A11.135,11.135,0,0,0,38.524,32.83L32.7,38.074A86.677,86.677,0,0,0,4,102.5V108.1a13.61,13.61,0,0,0,20.971,11.448l8.114-5.214a38.574,38.574,0,0,0,77.02,0l8.114,5.217a13.612,13.612,0,0,0,20.971-11.45V102.5a86.441,86.441,0,0,0-5.05-29.155ZM57.111,60.877c.319-.225.625-.466.961-.666l5.388-3.233a21.726,21.726,0,0,0,8.133-8.8,21.741,21.741,0,0,0,8.133,8.8l5.388,3.233c.338.2.642.444.961.666v15.39a38.3,38.3,0,0,0-28.965,0ZM71.6,145.847a33.8,33.8,0,1,1,33.8-33.8A33.835,33.835,0,0,1,71.6,145.847Z" transform="translate(0 0)" fill="#fff"/>
  </g>
</svg>
