<svg xmlns="http://www.w3.org/2000/svg" width="168.65" height="183.839" viewBox="0 0 168.65 183.839">
  <g id="stomach" opacity="0.8">
    <g id="Group_2820" data-name="Group 2820" transform="translate(0 0)">
      <path id="Path_4639" data-name="Path 4639" d="M95.225,302.121a1.587,1.587,0,0,0-1.337,1.525c-.008.321-.9,32.465-5.6,66.5a1.587,1.587,0,0,0,1.355,1.79,1.619,1.619,0,0,0,.219.015,1.588,1.588,0,0,0,1.57-1.37c3.182-23.022,4.626-45.184,5.233-57.318,3.232,12.3,7.78,35.217,4.006,56.543a1.587,1.587,0,0,0,3.126.553c5.622-31.765-6.7-66.854-6.828-67.2A1.585,1.585,0,0,0,95.225,302.121Z" transform="translate(-62.903 -189.287)" fill="#fff"/>
      <g id="Group_2819" data-name="Group 2819" transform="translate(0 0)">
        <path id="Path_4638" data-name="Path 4638" d="M86.919,54.568C91.49,44.235,91.813,38.4,91.825,38.154a1.588,1.588,0,0,0-.664-1.368c-.176-.125-14.153-10.225-20.353-24.3h11.6a1.587,1.587,0,0,0,0-3.174H69.571A31.152,31.152,0,0,1,67.964,1.48,1.587,1.587,0,1,0,64.8,1.7c1.308,19.085,19.719,34.046,23.768,37.116a55.842,55.842,0,0,1-4.549,14.47c-1.723,3.895-6.168,10.229-16.592,8.892-2.421-.31-4.611-.628-6.729-.936-11.557-1.679-18.533-2.691-27.047,3.029-16.4,11.016-13.751,33.9-12,49.043.252,2.183.491,4.246.637,6.017,1.3,15.735-.546,61.226-.565,61.684a1.587,1.587,0,0,0,1.521,1.651h.066a1.588,1.588,0,0,0,1.585-1.522c.032-.791.37-9.107.652-19.658h3.836a1.587,1.587,0,0,0,0-3.174H25.625c.341-13.95.532-30.686-.176-39.244-.151-1.823-.392-3.91-.648-6.12-.745-6.445-1.66-14.366-1.111-22.04H36.1a1.587,1.587,0,1,0,0-3.174h-12.1a41.351,41.351,0,0,1,1.471-6.908H56.642a1.587,1.587,0,0,0,0-3.174h-30A24.138,24.138,0,0,1,35.419,66.9c7.5-5.038,13.652-4.144,24.82-2.523,2.131.31,4.335.629,6.782.943C79.951,66.982,85.244,58.354,86.919,54.568Z" transform="translate(-20.336 -0.001)" fill="#f8eaea"/>
        <path id="Path_4640" data-name="Path 4640" d="M284.913,113.311c1.751-15.143,4.4-38.027-12-49.043-8.536-5.735-16.015-4.653-27.336-3.016-2.1.3-4.266.617-6.651.923-10.421,1.335-14.869-5-16.592-8.892-1.938-4.38-2.956-7.031-3.491-8.6,5.215,1.005,16.869,2.336,22.35-4.336,6.823-8.307-2.562-36.136-3.655-39.282a1.587,1.587,0,1,0-3,1.042,136.72,136.72,0,0,1,4.891,18.53H206.535c-9.756,0-12.755,7.822-12.978,11.958,0,.028,0,.057,0,.086v74.466c-.007,3.847,1.142,6.867,3.417,8.974a12.269,12.269,0,0,0,7.17,2.978c-.685,3.377-2.583,7.788-7.773,9.012-12.49,2.947-18.262,6.356-19.448,18.77a239.1,239.1,0,0,0-1.129,35.459,1.587,1.587,0,0,0,1.583,1.5c.03,0,.061,0,.091,0a1.587,1.587,0,0,0,1.495-1.674,236.108,236.108,0,0,1,1.12-34.977c1-10.474,5.127-13.177,17.017-15.982a12.421,12.421,0,0,0,8.176-6.129,14.872,14.872,0,0,1,4.449.815,18.007,18.007,0,0,0,6.006.967,15.329,15.329,0,0,0,5.8-1.014,13.921,13.921,0,0,1,9.5,0,15.141,15.141,0,0,0,4.026.937c-.243.644-.516,1.3-.822,1.954-4.432,9.533-13.351,15.493-26.509,17.716a20.554,20.554,0,0,1-14.7-2.728c-2.623-1.6-4.615-1.176-5.824-.543-4.762,2.5-5.9,12.749-6.336,20.245-.015.248-.027.463-.038.64,0,.018,0,.037,0,.055l-.527,17.64a1.587,1.587,0,0,0,1.539,1.634h.048a1.587,1.587,0,0,0,1.586-1.54L184,164.24c.011-.177.024-.389.038-.631.8-13.633,3.25-16.89,4.64-17.619.262-.137,1.061-.556,2.7.443a23.6,23.6,0,0,0,16.875,3.146c17.834-3.012,25.573-12.347,28.924-19.648a32.929,32.929,0,0,0,2.991-15.27,17.9,17.9,0,0,0-34.424-6.773,2.195,2.195,0,0,1-1.163-.582,5.463,5.463,0,0,1-1.126-3.633c0-.027,0-.053,0-.079V34.8c0-.049,0-.112-.008-.162a5.112,5.112,0,0,1,1.231-3.573c1.223-1.342,3.312-2.023,6.21-2.023h29.584c.2,4.066-.237,7.468-1.736,9.293-5.723,6.968-21.491,2.747-21.648,2.7a1.587,1.587,0,0,0-1.961,1.148c-.116.466-.423,1.7,4.3,12.38a17.728,17.728,0,0,0,16.727,10.965,25,25,0,0,0,3.171-.21c2.41-.309,4.592-.624,6.7-.929,11.343-1.64,17.59-2.544,25.111,2.509,10.361,6.961,12.231,19.706,11.852,31.659h-25.3a1.587,1.587,0,0,0,0,3.174h25.148c-.234,3.76-.641,7.38-1.018,10.643h-5.832a1.587,1.587,0,0,0,0,3.174h5.469c-.138,1.245-.261,2.427-.35,3.514-1.319,15.93.48,60.2.557,62.076a1.587,1.587,0,0,0,1.585,1.522h.066a1.587,1.587,0,0,0,1.521-1.651c-.019-.458-1.868-45.949-.565-61.684C284.422,117.556,284.66,115.494,284.913,113.311ZM210.892,25.867c-3.861,0-6.754,1.046-8.6,3.109a8.292,8.292,0,0,0-2.006,5.886v68.7c-.022.561-.06,3.92,2.069,6.007a5.7,5.7,0,0,0,4.575,1.532,1.587,1.587,0,0,0,1.388-1.061,15.048,15.048,0,0,1,13.99-10A14.7,14.7,0,0,1,237,114.728c0,.048,0,.1.007.146a28.835,28.835,0,0,1-.959,8.791,11.874,11.874,0,0,1-3.963-.82,17.1,17.1,0,0,0-11.6,0,12.132,12.132,0,0,1-4.75.836,14.89,14.89,0,0,1-5.069-.826,18.554,18.554,0,0,0-4.016-.875,20.9,20.9,0,0,0,.919-4.244,1.591,1.591,0,0,0-1.7-1.756c-.04,0-4.11.264-6.754-2.2-1.587-1.481-2.389-3.709-2.383-6.628V32.734c.053-.72.861-8.922,9.806-8.922h33.416q.15,1.039.264,2.054Z" transform="translate(-117.575 0)" fill="#fff"/>
      </g>
      <path id="Path_4641" data-name="Path 4641" d="M308.148,303.647a1.587,1.587,0,0,0-3.082-.491c-.112.314-10,28.458-8.038,57.139H261.894a1.587,1.587,0,0,0,0,3.174h35.4c.23,2.3.538,4.607.943,6.892a1.587,1.587,0,1,0,3.126-.553c-3.771-21.308.775-44.23,4.006-56.536.607,12.135,2.052,34.293,5.233,57.311a1.588,1.588,0,0,0,1.57,1.37,1.612,1.612,0,0,0,.219-.015,1.587,1.587,0,0,0,1.355-1.789C309.043,336.111,308.156,303.967,308.148,303.647Z" transform="translate(-170.694 -189.287)" fill="#fff"/>
    </g>
  </g>
</svg>
